<?xml version="1.0" encoding="UTF-8"?>
<svg width="1224px" height="1024px" viewBox="0 0 1224 1024" version="1.1" xmlns="http://www.w3.org/2000/svg" xmlns:xlink="http://www.w3.org/1999/xlink">
    <!-- Generator: Sketch 46.2 (44496) - http://www.bohemiancoding.com/sketch -->
    <title>pattern</title>
    <desc>Created with Sketch.</desc>
    <defs></defs>
    <g id="Page-1" stroke="none" stroke-width="1" fill="none" fill-rule="evenodd">
        <g id="Desktop-HD" transform="translate(-216.000000, 0.000000)" fill="#FFFFFF">
            <g id="pattern" transform="translate(216.000000, -343.000000)">
                <g id="Group-2" opacity="0.376019022" transform="translate(595.000000, 976.000000)" fill-opacity="0.4">
                    <polygon id="Polygon-Copy-148" transform="translate(217.000000, 96.000000) rotate(90.000000) translate(-217.000000, -96.000000) " points="217 76 234.320508 106 199.679492 106"></polygon>
                    <polygon id="Polygon-Copy-151" transform="translate(221.000000, 396.000000) rotate(90.000000) translate(-221.000000, -396.000000) " points="221 376 238.320508 406 203.679492 406"></polygon>
                    <polygon id="Polygon-Copy-161" transform="translate(216.000000, 20.000000) rotate(90.000000) translate(-216.000000, -20.000000) " points="216 0 233.320508 30 198.679492 30"></polygon>
                    <polygon id="Polygon-Copy-163" transform="translate(220.000000, 320.000000) rotate(90.000000) translate(-220.000000, -320.000000) " points="220 300 237.320508 330 202.679492 330"></polygon>
                    <polygon id="Polygon-Copy-166" transform="translate(318.000000, 172.000000) rotate(90.000000) translate(-318.000000, -172.000000) " points="318 152 335.320508 182 300.679492 182"></polygon>
                    <polygon id="Polygon-Copy-170" transform="translate(167.000000, 132.000000) rotate(90.000000) translate(-167.000000, -132.000000) " points="167 112 184.320508 142 149.679492 142"></polygon>
                    <polygon id="Polygon-Copy-173" transform="translate(166.000000, 56.000000) rotate(90.000000) translate(-166.000000, -56.000000) " points="166 36 183.320508 66 148.679492 66"></polygon>
                    <polygon id="Polygon-Copy-174" transform="translate(170.000000, 356.000000) rotate(90.000000) translate(-170.000000, -356.000000) " points="170 336 187.320508 366 152.679492 366"></polygon>
                    <polygon id="Polygon-Copy-175" transform="translate(268.000000, 208.000000) rotate(90.000000) translate(-268.000000, -208.000000) " points="268 188 285.320508 218 250.679492 218"></polygon>
                    <polygon id="Polygon-Copy-178" transform="translate(117.000000, 248.000000) rotate(90.000000) translate(-117.000000, -248.000000) " points="117 228 134.320508 258 99.6794919 258"></polygon>
                    <polygon id="Polygon-Copy-179" transform="translate(519.000000, 248.000000) rotate(90.000000) translate(-519.000000, -248.000000) " points="519 228 536.320508 258 501.679492 258"></polygon>
                    <polygon id="Polygon-Copy-185" transform="translate(518.000000, 172.000000) rotate(90.000000) translate(-518.000000, -172.000000) " points="518 152 535.320508 182 500.679492 182"></polygon>
                    <polygon id="Polygon-Copy-190" transform="translate(469.000000, 284.000000) rotate(90.000000) translate(-469.000000, -284.000000) " points="469 264 486.320508 294 451.679492 294"></polygon>
                    <polygon id="Polygon-Copy-195" transform="translate(468.000000, 208.000000) rotate(90.000000) translate(-468.000000, -208.000000) " points="468 188 485.320508 218 450.679492 218"></polygon>
                    <polygon id="Polygon-Copy-198" transform="translate(321.000000, 396.000000) rotate(90.000000) translate(-321.000000, -396.000000) " points="321 376 338.320508 406 303.679492 406"></polygon>
                    <polygon id="Polygon-Copy-202" transform="translate(316.000000, 20.000000) rotate(90.000000) translate(-316.000000, -20.000000) " points="316 0 333.320508 30 298.679492 30"></polygon>
                    <polygon id="Polygon-Copy-206" transform="translate(418.000000, 172.000000) rotate(90.000000) translate(-418.000000, -172.000000) " points="418 152 435.320508 182 400.679492 182"></polygon>
                    <polygon id="Polygon-Copy-207" transform="translate(267.000000, 132.000000) rotate(90.000000) translate(-267.000000, -132.000000) " points="267 112 284.320508 142 249.679492 142"></polygon>
                    <polygon id="Polygon-Copy-210" transform="translate(266.000000, 56.000000) rotate(90.000000) translate(-266.000000, -56.000000) " points="266 36 283.320508 66 248.679492 66"></polygon>
                    <polygon id="Polygon-Copy-211" transform="translate(270.000000, 356.000000) rotate(90.000000) translate(-270.000000, -356.000000) " points="270 336 287.320508 366 252.679492 366"></polygon>
                    <polygon id="Polygon-Copy-212" transform="translate(368.000000, 208.000000) rotate(90.000000) translate(-368.000000, -208.000000) " points="368 188 385.320508 218 350.679492 218"></polygon>
                    <polygon id="Polygon-Copy-213" transform="translate(517.000000, 96.000000) rotate(90.000000) translate(-517.000000, -96.000000) " points="517 76 534.320508 106 499.679492 106"></polygon>
                    <polygon id="Polygon-Copy-214" transform="translate(217.000000, 248.000000) rotate(90.000000) translate(-217.000000, -248.000000) " points="217 228 234.320508 258 199.679492 258"></polygon>
                    <polygon id="Polygon-Copy-215" transform="translate(619.000000, 248.000000) rotate(90.000000) translate(-619.000000, -248.000000) " points="619 228 636.320508 258 601.679492 258"></polygon>
                    <polygon id="Polygon-Copy-216" transform="translate(618.000000, 396.000000) rotate(90.000000) translate(-618.000000, -396.000000) " points="618 376 635.320508 406 600.679492 406"></polygon>
                    <polygon id="Polygon-Copy-217" transform="translate(520.000000, 396.000000) rotate(90.000000) translate(-520.000000, -396.000000) " points="520 376 537.320508 406 502.679492 406"></polygon>
                    <polygon id="Polygon-Copy-218" transform="translate(516.000000, 20.000000) rotate(90.000000) translate(-516.000000, -20.000000) " points="516 0 533.320508 30 498.679492 30"></polygon>
                    <polygon id="Polygon-Copy-219" transform="translate(216.000000, 172.000000) rotate(90.000000) translate(-216.000000, -172.000000) " points="216 152 233.320508 182 198.679492 182"></polygon>
                    <polygon id="Polygon-Copy-221" transform="translate(618.000000, 172.000000) rotate(90.000000) translate(-618.000000, -172.000000) " points="618 152 635.320508 182 600.679492 182"></polygon>
                    <polygon id="Polygon-Copy-222" transform="translate(617.000000, 320.000000) rotate(90.000000) translate(-617.000000, -320.000000) " points="617 300 634.320508 330 599.679492 330"></polygon>
                    <polygon id="Polygon-Copy-223" transform="translate(519.000000, 320.000000) rotate(90.000000) translate(-519.000000, -320.000000) " points="519 300 536.320508 330 501.679492 330"></polygon>
                    <polygon id="Polygon-Copy-225" transform="translate(467.000000, 132.000000) rotate(90.000000) translate(-467.000000, -132.000000) " points="467 112 484.320508 142 449.679492 142"></polygon>
                    <polygon id="Polygon-Copy-226" transform="translate(167.000000, 284.000000) rotate(90.000000) translate(-167.000000, -284.000000) " points="167 264 184.320508 294 149.679492 294"></polygon>
                    <polygon id="Polygon-Copy-227" transform="translate(569.000000, 284.000000) rotate(90.000000) translate(-569.000000, -284.000000) " points="569 264 586.320508 294 551.679492 294"></polygon>
                    <polygon id="Polygon-Copy-232" transform="translate(466.000000, 56.000000) rotate(90.000000) translate(-466.000000, -56.000000) " points="466 36 483.320508 66 448.679492 66"></polygon>
                    <polygon id="Polygon-Copy-233" transform="translate(166.000000, 208.000000) rotate(90.000000) translate(-166.000000, -208.000000) " points="166 188 183.320508 218 148.679492 218"></polygon>
                    <polygon id="Polygon-Copy-235" transform="translate(568.000000, 208.000000) rotate(90.000000) translate(-568.000000, -208.000000) " points="568 188 585.320508 218 550.679492 218"></polygon>
                    <polygon id="Polygon-Copy-236" transform="translate(567.000000, 356.000000) rotate(90.000000) translate(-567.000000, -356.000000) " points="567 336 584.320508 366 549.679492 366"></polygon>
                    <polygon id="Polygon-Copy-237" transform="translate(469.000000, 356.000000) rotate(90.000000) translate(-469.000000, -356.000000) " points="469 336 486.320508 366 451.679492 366"></polygon>
                    <polygon id="Polygon-Copy-239" transform="translate(177.000000, 96.000000) rotate(-90.000000) translate(-177.000000, -96.000000) " points="177 76 194.320508 106 159.679492 106"></polygon>
                    <polygon id="Polygon-Copy-240" transform="translate(181.000000, 396.000000) rotate(-90.000000) translate(-181.000000, -396.000000) " points="181 376 198.320508 406 163.679492 406"></polygon>
                    <polygon id="Polygon-Copy-242" transform="translate(176.000000, 20.000000) rotate(-90.000000) translate(-176.000000, -20.000000) " points="176 0 193.320508 30 158.679492 30"></polygon>
                    <polygon id="Polygon-Copy-243" transform="translate(180.000000, 320.000000) rotate(-90.000000) translate(-180.000000, -320.000000) " points="180 300 197.320508 330 162.679492 330"></polygon>
                    <polygon id="Polygon-Copy-244" transform="translate(278.000000, 172.000000) rotate(-90.000000) translate(-278.000000, -172.000000) " points="278 152 295.320508 182 260.679492 182"></polygon>
                    <polygon id="Polygon-Copy-246" transform="translate(127.000000, 132.000000) rotate(-90.000000) translate(-127.000000, -132.000000) " points="127 112 144.320508 142 109.679492 142"></polygon>
                    <polygon id="Polygon-Copy-248" transform="translate(229.000000, 284.000000) rotate(-90.000000) translate(-229.000000, -284.000000) " points="229 264 246.320508 294 211.679492 294"></polygon>
                    <polygon id="Polygon-Copy-249" transform="translate(126.000000, 56.000000) rotate(-90.000000) translate(-126.000000, -56.000000) " points="126 36 143.320508 66 108.679492 66"></polygon>
                    <polygon id="Polygon-Copy-250" transform="translate(130.000000, 356.000000) rotate(-90.000000) translate(-130.000000, -356.000000) " points="130 336 147.320508 366 112.679492 366"></polygon>
                    <polygon id="Polygon-Copy-251" transform="translate(228.000000, 208.000000) rotate(-90.000000) translate(-228.000000, -208.000000) " points="228 188 245.320508 218 210.679492 218"></polygon>
                    <polygon id="Polygon-Copy-255" transform="translate(479.000000, 248.000000) rotate(-90.000000) translate(-479.000000, -248.000000) " points="479 228 496.320508 258 461.679492 258"></polygon>
                    <polygon id="Polygon-Copy-261" transform="translate(478.000000, 172.000000) rotate(-90.000000) translate(-478.000000, -172.000000) " points="478 152 495.320508 182 460.679492 182"></polygon>
                    <polygon id="Polygon-Copy-269" transform="translate(326.000000, 56.000000) rotate(-90.000000) translate(-326.000000, -56.000000) " points="326 36 343.320508 66 308.679492 66"></polygon>
                    <polygon id="Polygon-Copy-273" transform="translate(428.000000, 208.000000) rotate(-90.000000) translate(-428.000000, -208.000000) " points="428 188 445.320508 218 410.679492 218"></polygon>
                    <polygon id="Polygon-Copy-274" transform="translate(277.000000, 96.000000) rotate(-90.000000) translate(-277.000000, -96.000000) " points="277 76 294.320508 106 259.679492 106"></polygon>
                    <polygon id="Polygon-Copy-275" transform="translate(281.000000, 396.000000) rotate(-90.000000) translate(-281.000000, -396.000000) " points="281 376 298.320508 406 263.679492 406"></polygon>
                    <polygon id="Polygon-Copy-278" transform="translate(276.000000, 20.000000) rotate(-90.000000) translate(-276.000000, -20.000000) " points="276 0 293.320508 30 258.679492 30"></polygon>
                    <polygon id="Polygon-Copy-280" transform="translate(378.000000, 172.000000) rotate(-90.000000) translate(-378.000000, -172.000000) " points="378 152 395.320508 182 360.679492 182"></polygon>
                    <polygon id="Polygon-Copy-281" transform="translate(227.000000, 132.000000) rotate(-90.000000) translate(-227.000000, -132.000000) " points="227 112 244.320508 142 209.679492 142"></polygon>
                    <polygon id="Polygon-Copy-284" transform="translate(226.000000, 56.000000) rotate(-90.000000) translate(-226.000000, -56.000000) " points="226 36 243.320508 66 208.679492 66"></polygon>
                    <polygon id="Polygon-Copy-285" transform="translate(230.000000, 356.000000) rotate(-90.000000) translate(-230.000000, -356.000000) " points="230 336 247.320508 366 212.679492 366"></polygon>
                    <polygon id="Polygon-Copy-286" transform="translate(328.000000, 208.000000) rotate(-90.000000) translate(-328.000000, -208.000000) " points="328 188 345.320508 218 310.679492 218"></polygon>
                    <polygon id="Polygon-Copy-288" transform="translate(477.000000, 96.000000) rotate(-90.000000) translate(-477.000000, -96.000000) " points="477 76 494.320508 106 459.679492 106"></polygon>
                    <polygon id="Polygon-Copy-289" transform="translate(177.000000, 248.000000) rotate(-90.000000) translate(-177.000000, -248.000000) " points="177 228 194.320508 258 159.679492 258"></polygon>
                    <polygon id="Polygon-Copy-290" transform="translate(579.000000, 248.000000) rotate(-90.000000) translate(-579.000000, -248.000000) " points="579 228 596.320508 258 561.679492 258"></polygon>
                    <polygon id="Polygon-Copy-292" transform="translate(578.000000, 396.000000) rotate(-90.000000) translate(-578.000000, -396.000000) " points="578 376 595.320508 406 560.679492 406"></polygon>
                    <polygon id="Polygon-Copy-293" transform="translate(480.000000, 396.000000) rotate(-90.000000) translate(-480.000000, -396.000000) " points="480 376 497.320508 406 462.679492 406"></polygon>
                    <polygon id="Polygon-Copy-295" transform="translate(476.000000, 20.000000) rotate(-90.000000) translate(-476.000000, -20.000000) " points="476 0 493.320508 30 458.679492 30"></polygon>
                    <polygon id="Polygon-Copy-296" transform="translate(176.000000, 172.000000) rotate(-90.000000) translate(-176.000000, -172.000000) " points="176 152 193.320508 182 158.679492 182"></polygon>
                    <polygon id="Polygon-Copy-298" transform="translate(578.000000, 172.000000) rotate(-90.000000) translate(-578.000000, -172.000000) " points="578 152 595.320508 182 560.679492 182"></polygon>
                    <polygon id="Polygon-Copy-299" transform="translate(577.000000, 320.000000) rotate(-90.000000) translate(-577.000000, -320.000000) " points="577 300 594.320508 330 559.679492 330"></polygon>
                    <polygon id="Polygon-Copy-300" transform="translate(479.000000, 320.000000) rotate(-90.000000) translate(-479.000000, -320.000000) " points="479 300 496.320508 330 461.679492 330"></polygon>
                    <polygon id="Polygon-Copy-302" transform="translate(427.000000, 132.000000) rotate(-90.000000) translate(-427.000000, -132.000000) " points="427 112 444.320508 142 409.679492 142"></polygon>
                    <polygon id="Polygon-Copy-303" transform="translate(127.000000, 284.000000) rotate(-90.000000) translate(-127.000000, -284.000000) " points="127 264 144.320508 294 109.679492 294"></polygon>
                    <polygon id="Polygon-Copy-304" transform="translate(529.000000, 284.000000) rotate(-90.000000) translate(-529.000000, -284.000000) " points="529 264 546.320508 294 511.679492 294"></polygon>
                    <polygon id="Polygon-Copy-310" transform="translate(126.000000, 208.000000) rotate(-90.000000) translate(-126.000000, -208.000000) " points="126 188 143.320508 218 108.679492 218"></polygon>
                    <polygon id="Polygon-Copy-312" transform="translate(528.000000, 208.000000) rotate(-90.000000) translate(-528.000000, -208.000000) " points="528 188 545.320508 218 510.679492 218"></polygon>
                </g>
                <g id="Group-2-Copy" transform="translate(889.000000, 376.000000)" fill-opacity="0.6">
                    <polygon id="Polygon-Copy-148" transform="translate(217.000000, 96.000000) rotate(90.000000) translate(-217.000000, -96.000000) " points="217 76 234.320508 106 199.679492 106"></polygon>
                    <polygon id="Polygon-Copy-151" transform="translate(221.000000, 396.000000) rotate(90.000000) translate(-221.000000, -396.000000) " points="221 376 238.320508 406 203.679492 406"></polygon>
                    <polygon id="Polygon-Copy-161" transform="translate(216.000000, 20.000000) rotate(90.000000) translate(-216.000000, -20.000000) " points="216 0 233.320508 30 198.679492 30"></polygon>
                    <polygon id="Polygon-Copy-163" transform="translate(220.000000, 320.000000) rotate(90.000000) translate(-220.000000, -320.000000) " points="220 300 237.320508 330 202.679492 330"></polygon>
                    <polygon id="Polygon-Copy-169" transform="translate(322.000000, 472.000000) rotate(90.000000) translate(-322.000000, -472.000000) " points="322 452 339.320508 482 304.679492 482"></polygon>
                    <polygon id="Polygon-Copy-170" transform="translate(167.000000, 132.000000) rotate(90.000000) translate(-167.000000, -132.000000) " points="167 112 184.320508 142 149.679492 142"></polygon>
                    <polygon id="Polygon-Copy-171" transform="translate(171.000000, 432.000000) rotate(90.000000) translate(-171.000000, -432.000000) " points="171 412 188.320508 442 153.679492 442"></polygon>
                    <polygon id="Polygon-Copy-173" transform="translate(166.000000, 56.000000) rotate(90.000000) translate(-166.000000, -56.000000) " points="166 36 183.320508 66 148.679492 66"></polygon>
                    <polygon id="Polygon-Copy-174" transform="translate(170.000000, 356.000000) rotate(90.000000) translate(-170.000000, -356.000000) " points="170 336 187.320508 366 152.679492 366"></polygon>
                    <polygon id="Polygon-Copy-176" transform="translate(272.000000, 508.000000) rotate(90.000000) translate(-272.000000, -508.000000) " points="272 488 289.320508 518 254.679492 518"></polygon>
                    <polygon id="Polygon-Copy-178" transform="translate(117.000000, 248.000000) rotate(90.000000) translate(-117.000000, -248.000000) " points="117 228 134.320508 258 99.6794919 258"></polygon>
                    <polygon id="Polygon-Copy-184" transform="translate(120.000000, 472.000000) rotate(90.000000) translate(-120.000000, -472.000000) " points="120 452 137.320508 482 102.679492 482"></polygon>
                    <polygon id="Polygon-Copy-194" transform="translate(70.000000, 508.000000) rotate(90.000000) translate(-70.000000, -508.000000) " points="70 488 87.3205081 518 52.6794919 518"></polygon>
                    <polygon id="Polygon-Copy-197" transform="translate(317.000000, 96.000000) rotate(90.000000) translate(-317.000000, -96.000000) " points="317 76 334.320508 106 299.679492 106"></polygon>
                    <polygon id="Polygon-Copy-198" transform="translate(321.000000, 396.000000) rotate(90.000000) translate(-321.000000, -396.000000) " points="321 376 338.320508 406 303.679492 406"></polygon>
                    <polygon id="Polygon-Copy-203" transform="translate(320.000000, 320.000000) rotate(90.000000) translate(-320.000000, -320.000000) " points="320 300 337.320508 330 302.679492 330"></polygon>
                    <polygon id="Polygon-Copy-205" transform="translate(20.000000, 472.000000) rotate(90.000000) translate(-20.000000, -472.000000) " points="20 452 37.3205081 482 2.67949192 482"></polygon>
                    <polygon id="Polygon-Copy-207" transform="translate(267.000000, 132.000000) rotate(90.000000) translate(-267.000000, -132.000000) " points="267 112 284.320508 142 249.679492 142"></polygon>
                    <polygon id="Polygon-Copy-208" transform="translate(271.000000, 432.000000) rotate(90.000000) translate(-271.000000, -432.000000) " points="271 412 288.320508 442 253.679492 442"></polygon>
                    <polygon id="Polygon-Copy-211" transform="translate(270.000000, 356.000000) rotate(90.000000) translate(-270.000000, -356.000000) " points="270 336 287.320508 366 252.679492 366"></polygon>
                    <polygon id="Polygon-Copy-219" transform="translate(216.000000, 172.000000) rotate(90.000000) translate(-216.000000, -172.000000) " points="216 152 233.320508 182 198.679492 182"></polygon>
                    <polygon id="Polygon-Copy-220" transform="translate(220.000000, 472.000000) rotate(90.000000) translate(-220.000000, -472.000000) " points="220 452 237.320508 482 202.679492 482"></polygon>
                    <polygon id="Polygon-Copy-226" transform="translate(167.000000, 284.000000) rotate(90.000000) translate(-167.000000, -284.000000) " points="167 264 184.320508 294 149.679492 294"></polygon>
                    <polygon id="Polygon-Copy-233" transform="translate(166.000000, 208.000000) rotate(90.000000) translate(-166.000000, -208.000000) " points="166 188 183.320508 218 148.679492 218"></polygon>
                    <polygon id="Polygon-Copy-234" transform="translate(170.000000, 508.000000) rotate(90.000000) translate(-170.000000, -508.000000) " points="170 488 187.320508 518 152.679492 518"></polygon>
                    <polygon id="Polygon-Copy-239" transform="translate(177.000000, 96.000000) rotate(-90.000000) translate(-177.000000, -96.000000) " points="177 76 194.320508 106 159.679492 106"></polygon>
                    <polygon id="Polygon-Copy-240" transform="translate(181.000000, 396.000000) rotate(-90.000000) translate(-181.000000, -396.000000) " points="181 376 198.320508 406 163.679492 406"></polygon>
                    <polygon id="Polygon-Copy-242" transform="translate(176.000000, 20.000000) rotate(-90.000000) translate(-176.000000, -20.000000) " points="176 0 193.320508 30 158.679492 30"></polygon>
                    <polygon id="Polygon-Copy-243" transform="translate(180.000000, 320.000000) rotate(-90.000000) translate(-180.000000, -320.000000) " points="180 300 197.320508 330 162.679492 330"></polygon>
                    <polygon id="Polygon-Copy-245" transform="translate(282.000000, 472.000000) rotate(-90.000000) translate(-282.000000, -472.000000) " points="282 452 299.320508 482 264.679492 482"></polygon>
                    <polygon id="Polygon-Copy-246" transform="translate(127.000000, 132.000000) rotate(-90.000000) translate(-127.000000, -132.000000) " points="127 112 144.320508 142 109.679492 142"></polygon>
                    <polygon id="Polygon-Copy-247" transform="translate(131.000000, 432.000000) rotate(-90.000000) translate(-131.000000, -432.000000) " points="131 412 148.320508 442 113.679492 442"></polygon>
                    <polygon id="Polygon-Copy-249" transform="translate(126.000000, 56.000000) rotate(-90.000000) translate(-126.000000, -56.000000) " points="126 36 143.320508 66 108.679492 66"></polygon>
                    <polygon id="Polygon-Copy-250" transform="translate(130.000000, 356.000000) rotate(-90.000000) translate(-130.000000, -356.000000) " points="130 336 147.320508 366 112.679492 366"></polygon>
                    <polygon id="Polygon-Copy-251" transform="translate(228.000000, 208.000000) rotate(-90.000000) translate(-228.000000, -208.000000) " points="228 188 245.320508 218 210.679492 218"></polygon>
                    <polygon id="Polygon-Copy-252" transform="translate(232.000000, 508.000000) rotate(-90.000000) translate(-232.000000, -508.000000) " points="232 488 249.320508 518 214.679492 518"></polygon>
                    <polygon id="Polygon-Copy-260" transform="translate(80.000000, 472.000000) rotate(-90.000000) translate(-80.000000, -472.000000) " points="80 452 97.3205081 482 62.6794919 482"></polygon>
                    <polygon id="Polygon-Copy-264" transform="translate(327.000000, 132.000000) rotate(-90.000000) translate(-327.000000, -132.000000) " points="327 112 344.320508 142 309.679492 142"></polygon>
                    <polygon id="Polygon-Copy-265" transform="translate(331.000000, 432.000000) rotate(-90.000000) translate(-331.000000, -432.000000) " points="331 412 348.320508 442 313.679492 442"></polygon>
                    <polygon id="Polygon-Copy-269" transform="translate(326.000000, 56.000000) rotate(-90.000000) translate(-326.000000, -56.000000) " points="326 36 343.320508 66 308.679492 66"></polygon>
                    <polygon id="Polygon-Copy-270" transform="translate(330.000000, 356.000000) rotate(-90.000000) translate(-330.000000, -356.000000) " points="330 336 347.320508 366 312.679492 366"></polygon>
                    <polygon id="Polygon-Copy-272" transform="translate(30.000000, 508.000000) rotate(-90.000000) translate(-30.000000, -508.000000) " points="30 488 47.3205081 518 12.6794919 518"></polygon>
                    <polygon id="Polygon-Copy-274" transform="translate(277.000000, 96.000000) rotate(-90.000000) translate(-277.000000, -96.000000) " points="277 76 294.320508 106 259.679492 106"></polygon>
                    <polygon id="Polygon-Copy-275" transform="translate(281.000000, 396.000000) rotate(-90.000000) translate(-281.000000, -396.000000) " points="281 376 298.320508 406 263.679492 406"></polygon>
                    <polygon id="Polygon-Copy-279" transform="translate(280.000000, 320.000000) rotate(-90.000000) translate(-280.000000, -320.000000) " points="280 300 297.320508 330 262.679492 330"></polygon>
                    <polygon id="Polygon-Copy-281" transform="translate(227.000000, 132.000000) rotate(-90.000000) translate(-227.000000, -132.000000) " points="227 112 244.320508 142 209.679492 142"></polygon>
                    <polygon id="Polygon-Copy-282" transform="translate(231.000000, 432.000000) rotate(-90.000000) translate(-231.000000, -432.000000) " points="231 412 248.320508 442 213.679492 442"></polygon>
                    <polygon id="Polygon-Copy-285" transform="translate(230.000000, 356.000000) rotate(-90.000000) translate(-230.000000, -356.000000) " points="230 336 247.320508 366 212.679492 366"></polygon>
                    <polygon id="Polygon-Copy-287" transform="translate(332.000000, 508.000000) rotate(-90.000000) translate(-332.000000, -508.000000) " points="332 488 349.320508 518 314.679492 518"></polygon>
                    <polygon id="Polygon-Copy-289" transform="translate(177.000000, 248.000000) rotate(-90.000000) translate(-177.000000, -248.000000) " points="177 228 194.320508 258 159.679492 258"></polygon>
                    <polygon id="Polygon-Copy-296" transform="translate(176.000000, 172.000000) rotate(-90.000000) translate(-176.000000, -172.000000) " points="176 152 193.320508 182 158.679492 182"></polygon>
                    <polygon id="Polygon-Copy-297" transform="translate(180.000000, 472.000000) rotate(-90.000000) translate(-180.000000, -472.000000) " points="180 452 197.320508 482 162.679492 482"></polygon>
                    <polygon id="Polygon-Copy-303" transform="translate(127.000000, 284.000000) rotate(-90.000000) translate(-127.000000, -284.000000) " points="127 264 144.320508 294 109.679492 294"></polygon>
                    <polygon id="Polygon-Copy-310" transform="translate(126.000000, 208.000000) rotate(-90.000000) translate(-126.000000, -208.000000) " points="126 188 143.320508 218 108.679492 218"></polygon>
                    <polygon id="Polygon-Copy-311" transform="translate(130.000000, 508.000000) rotate(-90.000000) translate(-130.000000, -508.000000) " points="130 488 147.320508 518 112.679492 518"></polygon>
                </g>
                <g id="Group" opacity="0.441689312" transform="translate(0.000000, 600.000000)">
                    <polygon id="Polygon-Copy-96" transform="translate(415.000000, 396.000000) rotate(90.000000) translate(-415.000000, -396.000000) " points="415 376 432.320508 406 397.679492 406"></polygon>
                    <polygon id="Polygon-Copy-64" transform="translate(111.000000, 248.000000) rotate(90.000000) translate(-111.000000, -248.000000) " points="111 228 128.320508 258 93.6794919 258"></polygon>
                    <polygon id="Polygon-Copy-16" transform="translate(410.000000, 20.000000) rotate(90.000000) translate(-410.000000, -20.000000) " points="410 0 427.320508 30 392.679492 30"></polygon>
                    <polygon id="Polygon-Copy-97" transform="translate(414.000000, 320.000000) rotate(90.000000) translate(-414.000000, -320.000000) " points="414 300 431.320508 330 396.679492 330"></polygon>
                    <polygon id="Polygon-Copy-98" transform="translate(516.000000, 472.000000) rotate(90.000000) translate(-516.000000, -472.000000) " points="516 452 533.320508 482 498.679492 482"></polygon>
                    <polygon id="Polygon-Copy-99" transform="translate(365.000000, 432.000000) rotate(90.000000) translate(-365.000000, -432.000000) " points="365 412 382.320508 442 347.679492 442"></polygon>
                    <polygon id="Polygon-Copy-34" transform="translate(463.000000, 284.000000) rotate(90.000000) translate(-463.000000, -284.000000) " points="463 264 480.320508 294 445.679492 294"></polygon>
                    <polygon id="Polygon-Copy-100" transform="translate(364.000000, 356.000000) rotate(90.000000) translate(-364.000000, -356.000000) " points="364 336 381.320508 366 346.679492 366"></polygon>
                    <polygon id="Polygon-Copy-67" transform="translate(60.000000, 208.000000) rotate(90.000000) translate(-60.000000, -208.000000) " points="60 188 77.3205081 218 42.6794919 218"></polygon>
                    <polygon id="Polygon-Copy-101" transform="translate(466.000000, 508.000000) rotate(90.000000) translate(-466.000000, -508.000000) " points="466 488 483.320508 518 448.679492 518"></polygon>
                    <polygon id="Polygon-Copy-4" transform="translate(611.000000, 96.000000) rotate(90.000000) translate(-611.000000, -96.000000) " points="611 76 628.320508 106 593.679492 106"></polygon>
                    <polygon id="Polygon-Copy-68" transform="translate(311.000000, 248.000000) rotate(90.000000) translate(-311.000000, -248.000000) " points="311 228 328.320508 258 293.679492 258"></polygon>
                    <polygon id="Polygon-Copy-36" transform="translate(713.000000, 248.000000) rotate(90.000000) translate(-713.000000, -248.000000) " points="713 228 730.320508 258 695.679492 258"></polygon>
                    <polygon id="Polygon-Copy-90" transform="translate(714.000000, 472.000000) rotate(90.000000) translate(-714.000000, -472.000000) " points="714 452 731.320508 482 696.679492 482"></polygon>
                    <polygon id="Polygon-Copy-144" transform="translate(615.000000, 620.000000) rotate(90.000000) translate(-615.000000, -620.000000) " points="615 600 632.320508 630 597.679492 630"></polygon>
                    <polygon id="Polygon-Copy-18" transform="translate(610.000000, 20.000000) rotate(90.000000) translate(-610.000000, -20.000000) " points="610 0 627.320508 30 592.679492 30"></polygon>
                    <polygon id="Polygon-Copy-102" transform="translate(314.000000, 472.000000) rotate(90.000000) translate(-314.000000, -472.000000) " points="314 452 331.320508 482 296.679492 482"></polygon>
                    <polygon id="Polygon-Copy-37" transform="translate(712.000000, 172.000000) rotate(90.000000) translate(-712.000000, -172.000000) " points="712 152 729.320508 182 694.679492 182"></polygon>
                    <polygon id="Polygon-Copy-131" transform="translate(613.000000, 320.000000) rotate(90.000000) translate(-613.000000, -320.000000) " points="613 300 630.320508 330 595.679492 330"></polygon>
                    <polygon id="Polygon-Copy-145" transform="translate(614.000000, 544.000000) rotate(90.000000) translate(-614.000000, -544.000000) " points="614 524 631.320508 554 596.679492 554"></polygon>
                    <polygon id="Polygon-Copy-9" transform="translate(561.000000, 132.000000) rotate(90.000000) translate(-561.000000, -132.000000) " points="561 112 578.320508 142 543.679492 142"></polygon>
                    <polygon id="Polygon-Copy-70" transform="translate(261.000000, 284.000000) rotate(90.000000) translate(-261.000000, -284.000000) " points="261 264 278.320508 294 243.679492 294"></polygon>
                    <polygon id="Polygon-Copy-38" transform="translate(663.000000, 284.000000) rotate(90.000000) translate(-663.000000, -284.000000) " points="663 264 680.320508 294 645.679492 294"></polygon>
                    <polygon id="Polygon-Copy-146" transform="translate(664.000000, 508.000000) rotate(90.000000) translate(-664.000000, -508.000000) " points="664 488 681.320508 518 646.679492 518"></polygon>
                    <polygon id="Polygon-Copy-132" transform="translate(564.000000, 432.000000) rotate(90.000000) translate(-564.000000, -432.000000) " points="564 412 581.320508 442 546.679492 442"></polygon>
                    <polygon id="Polygon-Copy-19" transform="translate(560.000000, 56.000000) rotate(90.000000) translate(-560.000000, -56.000000) " points="560 36 577.320508 66 542.679492 66"></polygon>
                    <polygon id="Polygon-Copy-103" transform="translate(264.000000, 508.000000) rotate(90.000000) translate(-264.000000, -508.000000) " points="264 488 281.320508 518 246.679492 518"></polygon>
                    <polygon id="Polygon-Copy-39" transform="translate(662.000000, 208.000000) rotate(90.000000) translate(-662.000000, -208.000000) " points="662 188 679.320508 218 644.679492 218"></polygon>
                    <polygon id="Polygon-Copy-133" transform="translate(563.000000, 356.000000) rotate(90.000000) translate(-563.000000, -356.000000) " points="563 336 580.320508 366 545.679492 366"></polygon>
                    <polygon id="Polygon-Copy-2" transform="translate(511.000000, 96.000000) rotate(90.000000) translate(-511.000000, -96.000000) " points="511 76 528.320508 106 493.679492 106"></polygon>
                    <polygon id="Polygon-Copy-104" transform="translate(515.000000, 396.000000) rotate(90.000000) translate(-515.000000, -396.000000) " points="515 376 532.320508 406 497.679492 406"></polygon>
                    <polygon id="Polygon-Copy-72" transform="translate(211.000000, 248.000000) rotate(90.000000) translate(-211.000000, -248.000000) " points="211 228 228.320508 258 193.679492 258"></polygon>
                    <polygon id="Polygon-Copy-40" transform="translate(613.000000, 248.000000) rotate(90.000000) translate(-613.000000, -248.000000) " points="613 228 630.320508 258 595.679492 258"></polygon>
                    <polygon id="Polygon-Copy-20" transform="translate(510.000000, 20.000000) rotate(90.000000) translate(-510.000000, -20.000000) " points="510 0 527.320508 30 492.679492 30"></polygon>
                    <polygon id="Polygon-Copy-105" transform="translate(514.000000, 320.000000) rotate(90.000000) translate(-514.000000, -320.000000) " points="514 300 531.320508 330 496.679492 330"></polygon>
                    <polygon id="Polygon-Copy-106" transform="translate(214.000000, 472.000000) rotate(90.000000) translate(-214.000000, -472.000000) " points="214 452 231.320508 482 196.679492 482"></polygon>
                    <polygon id="Polygon-Copy-41" transform="translate(612.000000, 172.000000) rotate(90.000000) translate(-612.000000, -172.000000) " points="612 152 629.320508 182 594.679492 182"></polygon>
                    <polygon id="Polygon-Copy-107" transform="translate(465.000000, 432.000000) rotate(90.000000) translate(-465.000000, -432.000000) " points="465 412 482.320508 442 447.679492 442"></polygon>
                    <polygon id="Polygon-Copy-42" transform="translate(563.000000, 284.000000) rotate(90.000000) translate(-563.000000, -284.000000) " points="563 264 580.320508 294 545.679492 294"></polygon>
                    <polygon id="Polygon-Copy-21" transform="translate(460.000000, 56.000000) rotate(90.000000) translate(-460.000000, -56.000000) " points="460 36 477.320508 66 442.679492 66"></polygon>
                    <polygon id="Polygon-Copy-108" transform="translate(464.000000, 356.000000) rotate(90.000000) translate(-464.000000, -356.000000) " points="464 336 481.320508 366 446.679492 366"></polygon>
                    <polygon id="Polygon-Copy-75" transform="translate(160.000000, 208.000000) rotate(90.000000) translate(-160.000000, -208.000000) " points="160 188 177.320508 218 142.679492 218"></polygon>
                    <polygon id="Polygon-Copy-43" transform="translate(562.000000, 208.000000) rotate(90.000000) translate(-562.000000, -208.000000) " points="562 188 579.320508 218 544.679492 218"></polygon>
                    <polygon id="Polygon-Copy-5" transform="translate(711.000000, 96.000000) rotate(90.000000) translate(-711.000000, -96.000000) " points="711 76 728.320508 106 693.679492 106"></polygon>
                    <polygon id="Polygon-Copy-76" transform="translate(411.000000, 248.000000) rotate(90.000000) translate(-411.000000, -248.000000) " points="411 228 428.320508 258 393.679492 258"></polygon>
                    <polygon id="Polygon-Copy-44" transform="translate(813.000000, 248.000000) rotate(90.000000) translate(-813.000000, -248.000000) " points="813 228 830.320508 258 795.679492 258"></polygon>
                    <polygon id="Polygon-Copy-66" transform="translate(812.000000, 396.000000) rotate(90.000000) translate(-812.000000, -396.000000) " points="812 376 829.320508 406 794.679492 406"></polygon>
                    <polygon id="Polygon-Copy-134" transform="translate(714.000000, 396.000000) rotate(90.000000) translate(-714.000000, -396.000000) " points="714 376 731.320508 406 696.679492 406"></polygon>
                    <polygon id="Polygon-Copy-22" transform="translate(710.000000, 20.000000) rotate(90.000000) translate(-710.000000, -20.000000) " points="710 0 727.320508 30 692.679492 30"></polygon>
                    <polygon id="Polygon-Copy-110" transform="translate(414.000000, 472.000000) rotate(90.000000) translate(-414.000000, -472.000000) " points="414 452 431.320508 482 396.679492 482"></polygon>
                    <polygon id="Polygon-Copy-45" transform="translate(812.000000, 172.000000) rotate(90.000000) translate(-812.000000, -172.000000) " points="812 152 829.320508 182 794.679492 182"></polygon>
                    <polygon id="Polygon-Copy-69" transform="translate(811.000000, 320.000000) rotate(90.000000) translate(-811.000000, -320.000000) " points="811 300 828.320508 330 793.679492 330"></polygon>
                    <polygon id="Polygon-Copy-135" transform="translate(713.000000, 320.000000) rotate(90.000000) translate(-713.000000, -320.000000) " points="713 300 730.320508 330 695.679492 330"></polygon>
                    <polygon id="Polygon-Copy-149" transform="translate(714.000000, 544.000000) rotate(90.000000) translate(-714.000000, -544.000000) " points="714 524 731.320508 554 696.679492 554"></polygon>
                    <polygon id="Polygon-Copy-11" transform="translate(661.000000, 132.000000) rotate(90.000000) translate(-661.000000, -132.000000) " points="661 112 678.320508 142 643.679492 142"></polygon>
                    <polygon id="Polygon-Copy-78" transform="translate(361.000000, 284.000000) rotate(90.000000) translate(-361.000000, -284.000000) " points="361 264 378.320508 294 343.679492 294"></polygon>
                    <polygon id="Polygon-Copy-46" transform="translate(763.000000, 284.000000) rotate(90.000000) translate(-763.000000, -284.000000) " points="763 264 780.320508 294 745.679492 294"></polygon>
                    <polygon id="Polygon-Copy-150" transform="translate(764.000000, 508.000000) rotate(90.000000) translate(-764.000000, -508.000000) " points="764 488 781.320508 518 746.679492 518"></polygon>
                    <polygon id="Polygon-Copy-71" transform="translate(762.000000, 432.000000) rotate(90.000000) translate(-762.000000, -432.000000) " points="762 412 779.320508 442 744.679492 442"></polygon>
                    <polygon id="Polygon-Copy-136" transform="translate(664.000000, 432.000000) rotate(90.000000) translate(-664.000000, -432.000000) " points="664 412 681.320508 442 646.679492 442"></polygon>
                    <polygon id="Polygon-Copy-152" transform="translate(665.000000, 656.000000) rotate(90.000000) translate(-665.000000, -656.000000) " points="665 636 682.320508 666 647.679492 666"></polygon>
                    <polygon id="Polygon-Copy-23" transform="translate(660.000000, 56.000000) rotate(90.000000) translate(-660.000000, -56.000000) " points="660 36 677.320508 66 642.679492 66"></polygon>
                    <polygon id="Polygon-Copy-79" transform="translate(360.000000, 208.000000) rotate(90.000000) translate(-360.000000, -208.000000) " points="360 188 377.320508 218 342.679492 218"></polygon>
                    <polygon id="Polygon-Copy-111" transform="translate(364.000000, 508.000000) rotate(90.000000) translate(-364.000000, -508.000000) " points="364 488 381.320508 518 346.679492 518"></polygon>
                    <polygon id="Polygon-Copy-47" transform="translate(762.000000, 208.000000) rotate(90.000000) translate(-762.000000, -208.000000) " points="762 188 779.320508 218 744.679492 218"></polygon>
                    <polygon id="Polygon-Copy-74" transform="translate(761.000000, 356.000000) rotate(90.000000) translate(-761.000000, -356.000000) " points="761 336 778.320508 366 743.679492 366"></polygon>
                    <polygon id="Polygon-Copy-137" transform="translate(663.000000, 356.000000) rotate(90.000000) translate(-663.000000, -356.000000) " points="663 336 680.320508 366 645.679492 366"></polygon>
                    <polygon id="Polygon-Copy-154" transform="translate(664.000000, 580.000000) rotate(90.000000) translate(-664.000000, -580.000000) " points="664 560 681.320508 590 646.679492 590"></polygon>
                    <polygon id="Polygon-Copy-112" transform="translate(375.000000, 396.000000) rotate(-90.000000) translate(-375.000000, -396.000000) " points="375 376 392.320508 406 357.679492 406"></polygon>
                    <polygon id="Polygon-Copy-113" transform="translate(374.000000, 320.000000) rotate(-90.000000) translate(-374.000000, -320.000000) " points="374 300 391.320508 330 356.679492 330"></polygon>
                    <polygon id="Polygon-Copy-114" transform="translate(476.000000, 472.000000) rotate(-90.000000) translate(-476.000000, -472.000000) " points="476 452 493.320508 482 458.679492 482"></polygon>
                    <polygon id="Polygon-Copy-115" transform="translate(325.000000, 432.000000) rotate(-90.000000) translate(-325.000000, -432.000000) " points="325 412 342.320508 442 307.679492 442"></polygon>
                    <polygon id="Polygon-Copy-50" transform="translate(423.000000, 284.000000) rotate(-90.000000) translate(-423.000000, -284.000000) " points="423 264 440.320508 294 405.679492 294"></polygon>
                    <polygon id="Polygon-Copy-116" transform="translate(324.000000, 356.000000) rotate(-90.000000) translate(-324.000000, -356.000000) " points="324 336 341.320508 366 306.679492 366"></polygon>
                    <polygon id="Polygon-Copy-83" transform="translate(20.000000, 208.000000) rotate(-90.000000) translate(-20.000000, -208.000000) " points="20 188 37.3205081 218 2.67949192 218"></polygon>
                    <polygon id="Polygon-Copy-51" transform="translate(422.000000, 208.000000) rotate(-90.000000) translate(-422.000000, -208.000000) " points="422 188 439.320508 218 404.679492 218"></polygon>
                    <polygon id="Polygon-Copy-117" transform="translate(426.000000, 508.000000) rotate(-90.000000) translate(-426.000000, -508.000000) " points="426 488 443.320508 518 408.679492 518"></polygon>
                    <polygon id="Polygon-Copy-6" transform="translate(571.000000, 96.000000) rotate(-90.000000) translate(-571.000000, -96.000000) " points="571 76 588.320508 106 553.679492 106"></polygon>
                    <polygon id="Polygon-Copy-84" transform="translate(271.000000, 248.000000) rotate(-90.000000) translate(-271.000000, -248.000000) " points="271 228 288.320508 258 253.679492 258"></polygon>
                    <polygon id="Polygon-Copy-52" transform="translate(673.000000, 248.000000) rotate(-90.000000) translate(-673.000000, -248.000000) " points="673 228 690.320508 258 655.679492 258"></polygon>
                    <polygon id="Polygon-Copy-155" transform="translate(674.000000, 472.000000) rotate(-90.000000) translate(-674.000000, -472.000000) " points="674 452 691.320508 482 656.679492 482"></polygon>
                    <polygon id="Polygon-Copy-156" transform="translate(575.000000, 620.000000) rotate(-90.000000) translate(-575.000000, -620.000000) " points="575 600 592.320508 630 557.679492 630"></polygon>
                    <polygon id="Polygon-Copy-26" transform="translate(570.000000, 20.000000) rotate(-90.000000) translate(-570.000000, -20.000000) " points="570 0 587.320508 30 552.679492 30"></polygon>
                    <polygon id="Polygon-Copy-118" transform="translate(274.000000, 472.000000) rotate(-90.000000) translate(-274.000000, -472.000000) " points="274 452 291.320508 482 256.679492 482"></polygon>
                    <polygon id="Polygon-Copy-53" transform="translate(672.000000, 172.000000) rotate(-90.000000) translate(-672.000000, -172.000000) " points="672 152 689.320508 182 654.679492 182"></polygon>
                    <polygon id="Polygon-Copy-139" transform="translate(573.000000, 320.000000) rotate(-90.000000) translate(-573.000000, -320.000000) " points="573 300 590.320508 330 555.679492 330"></polygon>
                    <polygon id="Polygon-Copy-157" transform="translate(574.000000, 544.000000) rotate(-90.000000) translate(-574.000000, -544.000000) " points="574 524 591.320508 554 556.679492 554"></polygon>
                    <polygon id="Polygon-Copy-13" transform="translate(521.000000, 132.000000) rotate(-90.000000) translate(-521.000000, -132.000000) " points="521 112 538.320508 142 503.679492 142"></polygon>
                    <polygon id="Polygon-Copy-119" transform="translate(525.000000, 432.000000) rotate(-90.000000) translate(-525.000000, -432.000000) " points="525 412 542.320508 442 507.679492 442"></polygon>
                    <polygon id="Polygon-Copy-86" transform="translate(221.000000, 284.000000) rotate(-90.000000) translate(-221.000000, -284.000000) " points="221 264 238.320508 294 203.679492 294"></polygon>
                    <polygon id="Polygon-Copy-54" transform="translate(623.000000, 284.000000) rotate(-90.000000) translate(-623.000000, -284.000000) " points="623 264 640.320508 294 605.679492 294"></polygon>
                    <polygon id="Polygon-Copy-158" transform="translate(624.000000, 508.000000) rotate(-90.000000) translate(-624.000000, -508.000000) " points="624 488 641.320508 518 606.679492 518"></polygon>
                    <polygon id="Polygon-Copy-27" transform="translate(520.000000, 56.000000) rotate(-90.000000) translate(-520.000000, -56.000000) " points="520 36 537.320508 66 502.679492 66"></polygon>
                    <polygon id="Polygon-Copy-120" transform="translate(524.000000, 356.000000) rotate(-90.000000) translate(-524.000000, -356.000000) " points="524 336 541.320508 366 506.679492 366"></polygon>
                    <polygon id="Polygon-Copy-87" transform="translate(220.000000, 208.000000) rotate(-90.000000) translate(-220.000000, -208.000000) " points="220 188 237.320508 218 202.679492 218"></polygon>
                    <polygon id="Polygon-Copy-121" transform="translate(224.000000, 508.000000) rotate(-90.000000) translate(-224.000000, -508.000000) " points="224 488 241.320508 518 206.679492 518"></polygon>
                    <polygon id="Polygon-Copy-55" transform="translate(622.000000, 208.000000) rotate(-90.000000) translate(-622.000000, -208.000000) " points="622 188 639.320508 218 604.679492 218"></polygon>
                    <polygon id="Polygon-Copy-122" transform="translate(475.000000, 396.000000) rotate(-90.000000) translate(-475.000000, -396.000000) " points="475 376 492.320508 406 457.679492 406"></polygon>
                    <polygon id="Polygon-Copy-88" transform="translate(171.000000, 248.000000) rotate(-90.000000) translate(-171.000000, -248.000000) " points="171 228 188.320508 258 153.679492 258"></polygon>
                    <polygon id="Polygon-Copy-56" transform="translate(573.000000, 248.000000) rotate(-90.000000) translate(-573.000000, -248.000000) " points="573 228 590.320508 258 555.679492 258"></polygon>
                    <polygon id="Polygon-Copy-28" transform="translate(470.000000, 20.000000) rotate(-90.000000) translate(-470.000000, -20.000000) " points="470 0 487.320508 30 452.679492 30"></polygon>
                    <polygon id="Polygon-Copy-123" transform="translate(474.000000, 320.000000) rotate(-90.000000) translate(-474.000000, -320.000000) " points="474 300 491.320508 330 456.679492 330"></polygon>
                    <polygon id="Polygon-Copy-89" transform="translate(170.000000, 172.000000) rotate(-90.000000) translate(-170.000000, -172.000000) " points="170 152 187.320508 182 152.679492 182"></polygon>
                    <polygon id="Polygon-Copy-124" transform="translate(174.000000, 472.000000) rotate(-90.000000) translate(-174.000000, -472.000000) " points="174 452 191.320508 482 156.679492 482"></polygon>
                    <polygon id="Polygon-Copy-57" transform="translate(572.000000, 172.000000) rotate(-90.000000) translate(-572.000000, -172.000000) " points="572 152 589.320508 182 554.679492 182"></polygon>
                    <polygon id="Polygon-Copy-125" transform="translate(425.000000, 432.000000) rotate(-90.000000) translate(-425.000000, -432.000000) " points="425 412 442.320508 442 407.679492 442"></polygon>
                    <polygon id="Polygon-Copy-58" transform="translate(523.000000, 284.000000) rotate(-90.000000) translate(-523.000000, -284.000000) " points="523 264 540.320508 294 505.679492 294"></polygon>
                    <polygon id="Polygon-Copy-126" transform="translate(424.000000, 356.000000) rotate(-90.000000) translate(-424.000000, -356.000000) " points="424 336 441.320508 366 406.679492 366"></polygon>
                    <polygon id="Polygon-Copy-91" transform="translate(120.000000, 208.000000) rotate(-90.000000) translate(-120.000000, -208.000000) " points="120 188 137.320508 218 102.679492 218"></polygon>
                    <polygon id="Polygon-Copy-7" transform="translate(671.000000, 96.000000) rotate(-90.000000) translate(-671.000000, -96.000000) " points="671 76 688.320508 106 653.679492 106"></polygon>
                    <polygon id="Polygon-Copy-92" transform="translate(371.000000, 248.000000) rotate(-90.000000) translate(-371.000000, -248.000000) " points="371 228 388.320508 258 353.679492 258"></polygon>
                    <polygon id="Polygon-Copy-60" transform="translate(773.000000, 248.000000) rotate(-90.000000) translate(-773.000000, -248.000000) " points="773 228 790.320508 258 755.679492 258"></polygon>
                    <polygon id="Polygon-Copy-160" transform="translate(774.000000, 472.000000) rotate(-90.000000) translate(-774.000000, -472.000000) " points="774 452 791.320508 482 756.679492 482"></polygon>
                    <polygon id="Polygon-Copy-80" transform="translate(772.000000, 396.000000) rotate(-90.000000) translate(-772.000000, -396.000000) " points="772 376 789.320508 406 754.679492 406"></polygon>
                    <polygon id="Polygon-Copy-140" transform="translate(674.000000, 396.000000) rotate(-90.000000) translate(-674.000000, -396.000000) " points="674 376 691.320508 406 656.679492 406"></polygon>
                    <polygon id="Polygon-Copy-162" transform="translate(675.000000, 620.000000) rotate(-90.000000) translate(-675.000000, -620.000000) " points="675 600 692.320508 630 657.679492 630"></polygon>
                    <polygon id="Polygon-Copy-30" transform="translate(670.000000, 20.000000) rotate(-90.000000) translate(-670.000000, -20.000000) " points="670 0 687.320508 30 652.679492 30"></polygon>
                    <polygon id="Polygon-Copy-128" transform="translate(374.000000, 472.000000) rotate(-90.000000) translate(-374.000000, -472.000000) " points="374 452 391.320508 482 356.679492 482"></polygon>
                    <polygon id="Polygon-Copy-61" transform="translate(772.000000, 172.000000) rotate(-90.000000) translate(-772.000000, -172.000000) " points="772 152 789.320508 182 754.679492 182"></polygon>
                    <polygon id="Polygon-Copy-82" transform="translate(771.000000, 320.000000) rotate(-90.000000) translate(-771.000000, -320.000000) " points="771 300 788.320508 330 753.679492 330"></polygon>
                    <polygon id="Polygon-Copy-141" transform="translate(673.000000, 320.000000) rotate(-90.000000) translate(-673.000000, -320.000000) " points="673 300 690.320508 330 655.679492 330"></polygon>
                    <polygon id="Polygon-Copy-164" transform="translate(674.000000, 544.000000) rotate(-90.000000) translate(-674.000000, -544.000000) " points="674 524 691.320508 554 656.679492 554"></polygon>
                    <polygon id="Polygon-Copy-15" transform="translate(621.000000, 132.000000) rotate(-90.000000) translate(-621.000000, -132.000000) " points="621 112 638.320508 142 603.679492 142"></polygon>
                    <polygon id="Polygon-Copy-94" transform="translate(321.000000, 284.000000) rotate(-90.000000) translate(-321.000000, -284.000000) " points="321 264 338.320508 294 303.679492 294"></polygon>
                    <polygon id="Polygon-Copy-62" transform="translate(723.000000, 284.000000) rotate(-90.000000) translate(-723.000000, -284.000000) " points="723 264 740.320508 294 705.679492 294"></polygon>
                    <polygon id="Polygon-Copy-165" transform="translate(724.000000, 508.000000) rotate(-90.000000) translate(-724.000000, -508.000000) " points="724 488 741.320508 518 706.679492 518"></polygon>
                    <polygon id="Polygon-Copy-85" transform="translate(722.000000, 432.000000) rotate(-90.000000) translate(-722.000000, -432.000000) " points="722 412 739.320508 442 704.679492 442"></polygon>
                    <polygon id="Polygon-Copy-167" transform="translate(625.000000, 656.000000) rotate(-90.000000) translate(-625.000000, -656.000000) " points="625 636 642.320508 666 607.679492 666"></polygon>
                    <polygon id="Polygon-Copy-31" transform="translate(620.000000, 56.000000) rotate(-90.000000) translate(-620.000000, -56.000000) " points="620 36 637.320508 66 602.679492 66"></polygon>
                    <polygon id="Polygon-Copy-95" transform="translate(320.000000, 208.000000) rotate(-90.000000) translate(-320.000000, -208.000000) " points="320 188 337.320508 218 302.679492 218"></polygon>
                    <polygon id="Polygon-Copy-129" transform="translate(324.000000, 508.000000) rotate(-90.000000) translate(-324.000000, -508.000000) " points="324 488 341.320508 518 306.679492 518"></polygon>
                    <polygon id="Polygon-Copy-63" transform="translate(722.000000, 208.000000) rotate(-90.000000) translate(-722.000000, -208.000000) " points="722 188 739.320508 218 704.679492 218"></polygon>
                    <polygon id="Polygon-Copy-143" transform="translate(623.000000, 356.000000) rotate(-90.000000) translate(-623.000000, -356.000000) " points="623 336 640.320508 366 605.679492 366"></polygon>
                    <polygon id="Polygon-Copy-168" transform="translate(624.000000, 580.000000) rotate(-90.000000) translate(-624.000000, -580.000000) " points="624 560 641.320508 590 606.679492 590"></polygon>
                </g>
                <g id="Group-Copy" opacity="0.86962183" transform="translate(294.000000, 0.000000)">
                    <polygon id="Polygon-Copy-96" transform="translate(415.000000, 396.000000) rotate(90.000000) translate(-415.000000, -396.000000) " points="415 376 432.320508 406 397.679492 406"></polygon>
                    <polygon id="Polygon-Copy-98" transform="translate(516.000000, 472.000000) rotate(90.000000) translate(-516.000000, -472.000000) " points="516 452 533.320508 482 498.679492 482"></polygon>
                    <polygon id="Polygon-Copy-99" transform="translate(365.000000, 432.000000) rotate(90.000000) translate(-365.000000, -432.000000) " points="365 412 382.320508 442 347.679492 442"></polygon>
                    <polygon id="Polygon-Copy-100" transform="translate(364.000000, 356.000000) rotate(90.000000) translate(-364.000000, -356.000000) " points="364 336 381.320508 366 346.679492 366"></polygon>
                    <polygon id="Polygon-Copy-101" transform="translate(466.000000, 508.000000) rotate(90.000000) translate(-466.000000, -508.000000) " points="466 488 483.320508 518 448.679492 518"></polygon>
                    <polygon id="Polygon-Copy-90" transform="translate(714.000000, 472.000000) rotate(90.000000) translate(-714.000000, -472.000000) " points="714 452 731.320508 482 696.679492 482"></polygon>
                    <polygon id="Polygon-Copy-130" transform="translate(614.000000, 396.000000) rotate(90.000000) translate(-614.000000, -396.000000) " points="614 376 631.320508 406 596.679492 406"></polygon>
                    <polygon id="Polygon-Copy-144" transform="translate(615.000000, 620.000000) rotate(90.000000) translate(-615.000000, -620.000000) " points="615 600 632.320508 630 597.679492 630"></polygon>
                    <polygon id="Polygon-Copy-102" transform="translate(314.000000, 472.000000) rotate(90.000000) translate(-314.000000, -472.000000) " points="314 452 331.320508 482 296.679492 482"></polygon>
                    <polygon id="Polygon-Copy-145" transform="translate(614.000000, 544.000000) rotate(90.000000) translate(-614.000000, -544.000000) " points="614 524 631.320508 554 596.679492 554"></polygon>
                    <polygon id="Polygon-Copy-146" transform="translate(664.000000, 508.000000) rotate(90.000000) translate(-664.000000, -508.000000) " points="664 488 681.320508 518 646.679492 518"></polygon>
                    <polygon id="Polygon-Copy-132" transform="translate(564.000000, 432.000000) rotate(90.000000) translate(-564.000000, -432.000000) " points="564 412 581.320508 442 546.679492 442"></polygon>
                    <polygon id="Polygon-Copy-103" transform="translate(264.000000, 508.000000) rotate(90.000000) translate(-264.000000, -508.000000) " points="264 488 281.320508 518 246.679492 518"></polygon>
                    <polygon id="Polygon-Copy-133" transform="translate(563.000000, 356.000000) rotate(90.000000) translate(-563.000000, -356.000000) " points="563 336 580.320508 366 545.679492 366"></polygon>
                    <polygon id="Polygon-Copy-104" transform="translate(515.000000, 396.000000) rotate(90.000000) translate(-515.000000, -396.000000) " points="515 376 532.320508 406 497.679492 406"></polygon>
                    <polygon id="Polygon-Copy-147" transform="translate(614.000000, 472.000000) rotate(90.000000) translate(-614.000000, -472.000000) " points="614 452 631.320508 482 596.679492 482"></polygon>
                    <polygon id="Polygon-Copy-106" transform="translate(214.000000, 472.000000) rotate(90.000000) translate(-214.000000, -472.000000) " points="214 452 231.320508 482 196.679492 482"></polygon>
                    <polygon id="Polygon-Copy-107" transform="translate(465.000000, 432.000000) rotate(90.000000) translate(-465.000000, -432.000000) " points="465 412 482.320508 442 447.679492 442"></polygon>
                    <polygon id="Polygon-Copy-108" transform="translate(464.000000, 356.000000) rotate(90.000000) translate(-464.000000, -356.000000) " points="464 336 481.320508 366 446.679492 366"></polygon>
                    <polygon id="Polygon-Copy-134" transform="translate(714.000000, 396.000000) rotate(90.000000) translate(-714.000000, -396.000000) " points="714 376 731.320508 406 696.679492 406"></polygon>
                    <polygon id="Polygon-Copy-110" transform="translate(414.000000, 472.000000) rotate(90.000000) translate(-414.000000, -472.000000) " points="414 452 431.320508 482 396.679492 482"></polygon>
                    <polygon id="Polygon-Copy-149" transform="translate(714.000000, 544.000000) rotate(90.000000) translate(-714.000000, -544.000000) " points="714 524 731.320508 554 696.679492 554"></polygon>
                    <polygon id="Polygon-Copy-150" transform="translate(764.000000, 508.000000) rotate(90.000000) translate(-764.000000, -508.000000) " points="764 488 781.320508 518 746.679492 518"></polygon>
                    <polygon id="Polygon-Copy-71" transform="translate(762.000000, 432.000000) rotate(90.000000) translate(-762.000000, -432.000000) " points="762 412 779.320508 442 744.679492 442"></polygon>
                    <polygon id="Polygon-Copy-136" transform="translate(664.000000, 432.000000) rotate(90.000000) translate(-664.000000, -432.000000) " points="664 412 681.320508 442 646.679492 442"></polygon>
                    <polygon id="Polygon-Copy-152" transform="translate(665.000000, 656.000000) rotate(90.000000) translate(-665.000000, -656.000000) " points="665 636 682.320508 666 647.679492 666"></polygon>
                    <polygon id="Polygon-Copy-111" transform="translate(364.000000, 508.000000) rotate(90.000000) translate(-364.000000, -508.000000) " points="364 488 381.320508 518 346.679492 518"></polygon>
                    <polygon id="Polygon-Copy-74" transform="translate(761.000000, 356.000000) rotate(90.000000) translate(-761.000000, -356.000000) " points="761 336 778.320508 366 743.679492 366"></polygon>
                    <polygon id="Polygon-Copy-137" transform="translate(663.000000, 356.000000) rotate(90.000000) translate(-663.000000, -356.000000) " points="663 336 680.320508 366 645.679492 366"></polygon>
                    <polygon id="Polygon-Copy-154" transform="translate(664.000000, 580.000000) rotate(90.000000) translate(-664.000000, -580.000000) " points="664 560 681.320508 590 646.679492 590"></polygon>
                    <polygon id="Polygon-Copy-112" transform="translate(375.000000, 396.000000) rotate(-90.000000) translate(-375.000000, -396.000000) " points="375 376 392.320508 406 357.679492 406"></polygon>
                    <polygon id="Polygon-Copy-114" transform="translate(476.000000, 472.000000) rotate(-90.000000) translate(-476.000000, -472.000000) " points="476 452 493.320508 482 458.679492 482"></polygon>
                    <polygon id="Polygon-Copy-115" transform="translate(325.000000, 432.000000) rotate(-90.000000) translate(-325.000000, -432.000000) " points="325 412 342.320508 442 307.679492 442"></polygon>
                    <polygon id="Polygon-Copy-116" transform="translate(324.000000, 356.000000) rotate(-90.000000) translate(-324.000000, -356.000000) " points="324 336 341.320508 366 306.679492 366"></polygon>
                    <polygon id="Polygon-Copy-117" transform="translate(426.000000, 508.000000) rotate(-90.000000) translate(-426.000000, -508.000000) " points="426 488 443.320508 518 408.679492 518"></polygon>
                    <polygon id="Polygon-Copy-155" transform="translate(674.000000, 472.000000) rotate(-90.000000) translate(-674.000000, -472.000000) " points="674 452 691.320508 482 656.679492 482"></polygon>
                    <polygon id="Polygon-Copy-138" transform="translate(574.000000, 396.000000) rotate(-90.000000) translate(-574.000000, -396.000000) " points="574 376 591.320508 406 556.679492 406"></polygon>
                    <polygon id="Polygon-Copy-156" transform="translate(575.000000, 620.000000) rotate(-90.000000) translate(-575.000000, -620.000000) " points="575 600 592.320508 630 557.679492 630"></polygon>
                    <polygon id="Polygon-Copy-118" transform="translate(274.000000, 472.000000) rotate(-90.000000) translate(-274.000000, -472.000000) " points="274 452 291.320508 482 256.679492 482"></polygon>
                    <polygon id="Polygon-Copy-157" transform="translate(574.000000, 544.000000) rotate(-90.000000) translate(-574.000000, -544.000000) " points="574 524 591.320508 554 556.679492 554"></polygon>
                    <polygon id="Polygon-Copy-119" transform="translate(525.000000, 432.000000) rotate(-90.000000) translate(-525.000000, -432.000000) " points="525 412 542.320508 442 507.679492 442"></polygon>
                    <polygon id="Polygon-Copy-158" transform="translate(624.000000, 508.000000) rotate(-90.000000) translate(-624.000000, -508.000000) " points="624 488 641.320508 518 606.679492 518"></polygon>
                    <polygon id="Polygon-Copy-120" transform="translate(524.000000, 356.000000) rotate(-90.000000) translate(-524.000000, -356.000000) " points="524 336 541.320508 366 506.679492 366"></polygon>
                    <polygon id="Polygon-Copy-121" transform="translate(224.000000, 508.000000) rotate(-90.000000) translate(-224.000000, -508.000000) " points="224 488 241.320508 518 206.679492 518"></polygon>
                    <polygon id="Polygon-Copy-122" transform="translate(475.000000, 396.000000) rotate(-90.000000) translate(-475.000000, -396.000000) " points="475 376 492.320508 406 457.679492 406"></polygon>
                    <polygon id="Polygon-Copy-159" transform="translate(574.000000, 472.000000) rotate(-90.000000) translate(-574.000000, -472.000000) " points="574 452 591.320508 482 556.679492 482"></polygon>
                    <polygon id="Polygon-Copy-124" transform="translate(174.000000, 472.000000) rotate(-90.000000) translate(-174.000000, -472.000000) " points="174 452 191.320508 482 156.679492 482"></polygon>
                    <polygon id="Polygon-Copy-125" transform="translate(425.000000, 432.000000) rotate(-90.000000) translate(-425.000000, -432.000000) " points="425 412 442.320508 442 407.679492 442"></polygon>
                    <polygon id="Polygon-Copy-126" transform="translate(424.000000, 356.000000) rotate(-90.000000) translate(-424.000000, -356.000000) " points="424 336 441.320508 366 406.679492 366"></polygon>
                    <polygon id="Polygon-Copy-127" transform="translate(526.000000, 508.000000) rotate(-90.000000) translate(-526.000000, -508.000000) " points="526 488 543.320508 518 508.679492 518"></polygon>
                    <polygon id="Polygon-Copy-160" transform="translate(774.000000, 472.000000) rotate(-90.000000) translate(-774.000000, -472.000000) " points="774 452 791.320508 482 756.679492 482"></polygon>
                    <polygon id="Polygon-Copy-80" transform="translate(772.000000, 396.000000) rotate(-90.000000) translate(-772.000000, -396.000000) " points="772 376 789.320508 406 754.679492 406"></polygon>
                    <polygon id="Polygon-Copy-140" transform="translate(674.000000, 396.000000) rotate(-90.000000) translate(-674.000000, -396.000000) " points="674 376 691.320508 406 656.679492 406"></polygon>
                    <polygon id="Polygon-Copy-162" transform="translate(675.000000, 620.000000) rotate(-90.000000) translate(-675.000000, -620.000000) " points="675 600 692.320508 630 657.679492 630"></polygon>
                    <polygon id="Polygon-Copy-128" transform="translate(374.000000, 472.000000) rotate(-90.000000) translate(-374.000000, -472.000000) " points="374 452 391.320508 482 356.679492 482"></polygon>
                    <polygon id="Polygon-Copy-164" transform="translate(674.000000, 544.000000) rotate(-90.000000) translate(-674.000000, -544.000000) " points="674 524 691.320508 554 656.679492 554"></polygon>
                    <polygon id="Polygon-Copy-165" transform="translate(724.000000, 508.000000) rotate(-90.000000) translate(-724.000000, -508.000000) " points="724 488 741.320508 518 706.679492 518"></polygon>
                    <polygon id="Polygon-Copy-85" transform="translate(722.000000, 432.000000) rotate(-90.000000) translate(-722.000000, -432.000000) " points="722 412 739.320508 442 704.679492 442"></polygon>
                    <polygon id="Polygon-Copy-142" transform="translate(624.000000, 432.000000) rotate(-90.000000) translate(-624.000000, -432.000000) " points="624 412 641.320508 442 606.679492 442"></polygon>
                    <polygon id="Polygon-Copy-167" transform="translate(625.000000, 656.000000) rotate(-90.000000) translate(-625.000000, -656.000000) " points="625 636 642.320508 666 607.679492 666"></polygon>
                    <polygon id="Polygon-Copy-129" transform="translate(324.000000, 508.000000) rotate(-90.000000) translate(-324.000000, -508.000000) " points="324 488 341.320508 518 306.679492 518"></polygon>
                    <polygon id="Polygon-Copy-143" transform="translate(623.000000, 356.000000) rotate(-90.000000) translate(-623.000000, -356.000000) " points="623 336 640.320508 366 605.679492 366"></polygon>
                    <polygon id="Polygon-Copy-168" transform="translate(624.000000, 580.000000) rotate(-90.000000) translate(-624.000000, -580.000000) " points="624 560 641.320508 590 606.679492 590"></polygon>
                </g>
            </g>
        </g>
    </g>
</svg>