<svg xmlns="http://www.w3.org/2000/svg" xmlns:xlink="http://www.w3.org/1999/xlink" version="1.1" x="0px" y="0px" viewBox="0 0 100 125" style="enable-background:new 0 0 100 100;" xml:space="preserve"><path d="M50.8,92.8v1.5c0,0.2-0.1,0.4-0.3,0.5c-0.1,0-0.1,0-0.2,0c-0.2,0-0.3-0.1-0.4-0.2L49,93.4c-0.2-0.2-0.1-0.5,0.1-0.7  c0.2-0.2,0.5-0.1,0.7,0.1c0-0.3,0.2-0.5,0.5-0.5C50.6,92.3,50.8,92.5,50.8,92.8z M42.7,83.1c-0.2-0.2-0.5-0.3-0.7-0.1  c-0.2,0.2-0.3,0.5-0.1,0.7l1.8,2.4c0.1,0.1,0.2,0.2,0.4,0.2c0.1,0,0.2,0,0.3-0.1c0.2-0.2,0.3-0.5,0.1-0.7L42.7,83.1z M38.5,75.4  c0,0.3,0.2,0.5,0.5,0.5h0c0.3,0,0.5-0.2,0.5-0.5l0-3c0-0.3-0.2-0.5-0.5-0.5c0,0,0,0,0,0c-0.3,0-0.5,0.2-0.5,0.5L38.5,75.4z   M46.3,87.9c-0.2-0.2-0.5-0.3-0.7-0.1c-0.2,0.2-0.3,0.5-0.1,0.7l1.8,2.4c0.1,0.1,0.2,0.2,0.4,0.2c0.1,0,0.2,0,0.3-0.1  c0.2-0.2,0.3-0.5,0.1-0.7L46.3,87.9z M38.6,69.4c0,0.3,0.2,0.5,0.5,0.5c0,0,0,0,0,0c0.3,0,0.5-0.2,0.5-0.5l0-3  c0-0.3-0.2-0.5-0.5-0.5c0,0,0,0,0,0c-0.3,0-0.5,0.2-0.5,0.5L38.6,69.4z M39.1,63.9L39.1,63.9c0.3,0,0.5-0.2,0.5-0.5l0-3  c0-0.3-0.2-0.5-0.5-0.5c0,0,0,0,0,0c-0.3,0-0.5,0.2-0.5,0.5l0,3C38.6,63.7,38.8,63.9,39.1,63.9z M39.5,78.8l0-0.3  c0-0.3-0.2-0.5-0.5-0.5s-0.5,0.2-0.5,0.5l0,0.5c0,0.1,0,0.2,0.1,0.3l1.5,2c0.1,0.1,0.2,0.2,0.4,0.2c0.1,0,0.2,0,0.3-0.1  c0.2-0.2,0.3-0.5,0.1-0.7L39.5,78.8z M40.6,55.4h-1.2l-0.6-1c-0.1-0.2-0.4-0.3-0.7-0.2c-0.2,0.1-0.3,0.4-0.2,0.7l0.7,1.2l0,1.4  c0,0.3,0.2,0.5,0.5,0.5c0,0,0,0,0,0c0.3,0,0.5-0.2,0.5-0.5l0-1h1c0.3,0,0.5-0.2,0.5-0.5S40.9,55.4,40.6,55.4z M43.3,55.4  c-0.3,0-0.5,0.2-0.5,0.5s0.2,0.5,0.5,0.5h2.7c0.3,0,0.5-0.2,0.5-0.5s-0.2-0.5-0.5-0.5H43.3z M50.3,79.4c-0.3,0-0.5,0.2-0.5,0.5v3.2  c0,0.3,0.2,0.5,0.5,0.5s0.5-0.2,0.5-0.5v-3.2C50.8,79.7,50.6,79.4,50.3,79.4z M50.3,60.1c-0.3,0-0.5,0.2-0.5,0.5v3.2  c0,0.3,0.2,0.5,0.5,0.5s0.5-0.2,0.5-0.5v-3.2C50.8,60.4,50.6,60.1,50.3,60.1z M50.3,66.6c-0.3,0-0.5,0.2-0.5,0.5v3.2  c0,0.3,0.2,0.5,0.5,0.5s0.5-0.2,0.5-0.5v-3.2C50.8,66.8,50.6,66.6,50.3,66.6z M50.3,85.9c-0.3,0-0.5,0.2-0.5,0.5v3.2  c0,0.3,0.2,0.5,0.5,0.5s0.5-0.2,0.5-0.5v-3.2C50.8,86.1,50.6,85.9,50.3,85.9z M50.3,73c-0.3,0-0.5,0.2-0.5,0.5v3.2  c0,0.3,0.2,0.5,0.5,0.5s0.5-0.2,0.5-0.5v-3.2C50.8,73.2,50.6,73,50.3,73z M51.3,54.2c-0.2-0.1-0.5-0.1-0.7,0.2l-0.6,1h-1.2  c-0.3,0-0.5,0.2-0.5,0.5s0.2,0.5,0.5,0.5h1v1c0,0.3,0.2,0.5,0.5,0.5s0.5-0.2,0.5-0.5v-1.4l0.7-1.2C51.6,54.6,51.5,54.3,51.3,54.2z   M19.2,18.1c0-0.3-0.2-0.5-0.5-0.5h-1.5c-0.2,0-0.3,0.1-0.4,0.3c-0.1,0.2-0.1,0.3,0,0.5l0.8,1.3c0.1,0.2,0.3,0.2,0.4,0.2  c0.1,0,0.2,0,0.3-0.1c0.2-0.1,0.3-0.4,0.2-0.7L18,18.6h0.6C18.9,18.6,19.2,18.3,19.2,18.1z M29.3,38.1c-0.1-0.2-0.4-0.3-0.7-0.2  c-0.2,0.1-0.3,0.4-0.2,0.7l1.6,2.7c0.1,0.2,0.3,0.2,0.4,0.2c0.1,0,0.2,0,0.3-0.1c0.2-0.1,0.3-0.4,0.2-0.7L29.3,38.1z M26.2,32.7  c-0.1-0.2-0.4-0.3-0.7-0.2c-0.2,0.1-0.3,0.4-0.2,0.7l1.6,2.7c0.1,0.2,0.3,0.2,0.4,0.2c0.1,0,0.2,0,0.3-0.1c0.2-0.1,0.3-0.4,0.2-0.7  L26.2,32.7z M32.5,43.5c-0.1-0.2-0.4-0.3-0.7-0.2c-0.2,0.1-0.3,0.4-0.2,0.7l1.6,2.7c0.1,0.2,0.3,0.2,0.4,0.2c0.1,0,0.2,0,0.3-0.1  c0.2-0.1,0.3-0.4,0.2-0.7L32.5,43.5z M19.9,21.8c-0.1-0.2-0.4-0.3-0.7-0.2c-0.2,0.1-0.3,0.4-0.2,0.7l1.6,2.7  c0.1,0.2,0.3,0.2,0.4,0.2c0.1,0,0.2,0,0.3-0.1c0.2-0.1,0.3-0.4,0.2-0.7L19.9,21.8z M23.1,27.2c-0.1-0.2-0.4-0.3-0.7-0.2  c-0.2,0.1-0.3,0.4-0.2,0.7l1.6,2.7c0.1,0.2,0.3,0.2,0.4,0.2c0.1,0,0.2,0,0.3-0.1c0.2-0.1,0.3-0.4,0.2-0.7L23.1,27.2z M35.6,48.9  c-0.1-0.2-0.4-0.3-0.7-0.2c-0.2,0.1-0.3,0.4-0.2,0.7l1.6,2.7c0.1,0.2,0.3,0.2,0.4,0.2c0.1,0,0.2,0,0.3-0.1c0.2-0.1,0.3-0.4,0.2-0.7  L35.6,48.9z M27.8,18.6h3.1c0.3,0,0.5-0.2,0.5-0.5s-0.2-0.5-0.5-0.5h-3.1c-0.3,0-0.5,0.2-0.5,0.5S27.6,18.6,27.8,18.6z M21.7,18.6  h3.1c0.3,0,0.5-0.2,0.5-0.5s-0.2-0.5-0.5-0.5h-3.1c-0.3,0-0.5,0.2-0.5,0.5S21.5,18.6,21.7,18.6z M46.2,18.6h3.1  c0.3,0,0.5-0.2,0.5-0.5s-0.2-0.5-0.5-0.5h-3.1c-0.3,0-0.5,0.2-0.5,0.5S45.9,18.6,46.2,18.6z M34,18.6H37c0.3,0,0.5-0.2,0.5-0.5  s-0.2-0.5-0.5-0.5H34c-0.3,0-0.5,0.2-0.5,0.5S33.7,18.6,34,18.6z M40.1,18.6h3.1c0.3,0,0.5-0.2,0.5-0.5s-0.2-0.5-0.5-0.5h-3.1  c-0.3,0-0.5,0.2-0.5,0.5S39.8,18.6,40.1,18.6z M57.6,43.3c-0.2-0.1-0.5-0.1-0.7,0.2l-1.6,2.7c-0.1,0.2-0.1,0.5,0.2,0.7  c0.1,0,0.2,0.1,0.2,0.1c0.2,0,0.3-0.1,0.4-0.3l1.6-2.7C57.9,43.8,57.8,43.5,57.6,43.3z M54.4,48.8c-0.2-0.1-0.5-0.1-0.7,0.2  l-1.6,2.7c-0.1,0.2-0.1,0.5,0.2,0.7c0.1,0,0.2,0.1,0.2,0.1c0.2,0,0.3-0.1,0.4-0.3l1.6-2.7C54.8,49.2,54.7,48.9,54.4,48.8z   M60.7,37.9c-0.2-0.1-0.5-0.1-0.7,0.2l-1.6,2.7c-0.1,0.2-0.1,0.5,0.2,0.7c0.1,0,0.2,0.1,0.2,0.1c0.2,0,0.3-0.1,0.4-0.3l1.6-2.7  C61,38.4,60.9,38,60.7,37.9z M47.8,58.8h-6.2c0,5.7,0,13,0,18.7c2.1,3.8,4.1,5.9,6.2,9.7V58.8z M49.2,53.3l10.3-17.5  c-5.2-3-8.6-8.6-8.6-15.1c-9.9,0-19.8,0-29.8,0l18.5,32.6H49.2z M83.3,20.7c0,8.3-6.7,15-15,15c-8.3,0-15-6.7-15-15  c0-8.3,6.7-15,15-15C76.6,5.7,83.3,12.4,83.3,20.7z M77.3,20.7c0-0.8-0.7-1.5-1.5-1.5h-6v-6c0-0.8-0.7-1.5-1.5-1.5s-1.5,0.7-1.5,1.5  v6h-6c-0.8,0-1.5,0.7-1.5,1.5s0.7,1.5,1.5,1.5h6v6c0,0.8,0.7,1.5,1.5,1.5s1.5-0.7,1.5-1.5v-6h6C76.7,22.2,77.3,21.5,77.3,20.7z"/><text x="0" y="115" fill="#000000" font-size="5px" font-weight="bold" font-family="'Helvetica Neue', Helvetica, Arial-Unicode, Arial, Sans-serif">Created by Pravin Unagar</text><text x="0" y="120" fill="#000000" font-size="5px" font-weight="bold" font-family="'Helvetica Neue', Helvetica, Arial-Unicode, Arial, Sans-serif">from the Noun Project</text></svg>