<svg xmlns="http://www.w3.org/2000/svg" xmlns:xlink="http://www.w3.org/1999/xlink" version="1.1" x="0px" y="0px" viewBox="0 0 100 125" enable-background="new 0 0 100 100" xml:space="preserve"><g><path d="M37.49,40.58c-0.553,0-1-0.448-1-1c0-6.395,2.489-12.407,7.011-16.929C48.021,18.13,54.03,15.64,60.42,15.64   c0.553,0,1,0.448,1,1s-0.447,1-1,1c-5.855,0-11.361,2.282-15.505,6.425c-4.143,4.144-6.425,9.654-6.425,15.515   C38.49,40.132,38.043,40.58,37.49,40.58z"/></g><path d="M84.87,15.13c13.51,13.5,13.51,35.39,0,48.89c-6.75,6.76-15.6,10.13-24.45,10.13c-7.65,0-15.29-2.53-21.59-7.58l-3.79,3.79  c0.32,2.01-0.27,4.14-1.82,5.68L16.18,93.08C14.9,94.36,13.23,95,11.55,95s-3.35-0.64-4.63-1.92c-2.56-2.56-2.56-6.71,0-9.26  l17.04-17.04c1.54-1.55,3.67-2.14,5.68-1.82l3.79-3.79c-10.89-13.58-10.04-33.45,2.55-46.04C42.73,8.38,51.58,5,60.42,5  C69.27,5,78.12,8.38,84.87,15.13z M87.36,39.58c0-7.2-2.8-13.96-7.89-19.05c-5.09-5.09-11.85-7.89-19.05-7.89  c-7.19,0-13.95,2.8-19.04,7.89s-7.89,11.85-7.89,19.05c0,7.19,2.8,13.95,7.89,19.04s11.85,7.89,19.04,7.89  c7.2,0,13.96-2.8,19.05-7.89C84.56,53.53,87.36,46.77,87.36,39.58z"/><text x="0" y="115" fill="#000000" font-size="5px" font-weight="bold" font-family="'Helvetica Neue', Helvetica, Arial-Unicode, Arial, Sans-serif">Created by Maxim Kulikov</text><text x="0" y="120" fill="#000000" font-size="5px" font-weight="bold" font-family="'Helvetica Neue', Helvetica, Arial-Unicode, Arial, Sans-serif">from the Noun Project</text></svg>